<svg width="500" height="71" viewBox="0 0 500 71" fill="none" xmlns="http://www.w3.org/2000/svg">
<path fill-rule="evenodd" clip-rule="evenodd" d="M324.625 5.87592C325.875 3.43781 328.125 1.24976 330.094 0.562088C332 -0.12558 335.781 -0.0943222 337.344 0.624603C339.031 1.37479 340.719 3.34403 341.469 5.37579C341.812 6.31352 344.75 15.3783 348 25.5371L353.875 44.0104L367.438 24.5993C374.875 13.9404 381.5 4.56309 382.125 3.84416C382.75 3.09397 384.094 1.96869 385.094 1.34354C386.719 0.343285 387.188 0.218254 389.531 0.0932236C391.781 -0.031807 392.344 0.0619659 393.562 0.655869C395.25 1.43731 396.375 3.12523 396.875 5.50082C397.156 6.81365 401.875 66.8911 401.875 69.0167V69.7356H393.125H384.375V68.8604C384.344 66.9536 381.656 33.7891 381.5 33.6328C381.406 33.5391 376.219 40.6033 369.969 49.3243C363.719 58.0764 357.844 66.0159 356.906 67.0162C354.5 69.5793 352.406 70.517 349.219 70.517C347.062 70.517 346.531 70.392 345.281 69.6731C344.406 69.1417 343.437 68.2352 342.875 67.3287C342.219 66.2972 340.188 60.4833 336.562 49.2617C333.594 40.1345 331.094 32.6013 330.969 32.445C330.844 32.32 327.094 40.6658 322.625 50.9809L314.531 69.7356H305.719L296.875 69.7356L297.156 69.0167C297.312 68.6416 297.75 67.6101 298.125 66.7661C298.253 66.4677 298.432 66.0639 298.634 65.6068L298.635 65.6053C299.026 64.7219 299.505 63.6397 299.875 62.7338L300.938 60.2645L298.906 62.2025C295.156 65.7033 289.688 68.3602 284.406 69.2667C280.219 70.0169 247.875 69.7981 245.375 69.0479C239.812 67.36 235.25 63.6716 233.031 59.1079C231.781 56.5761 230.938 53.6691 230.938 51.9812C230.938 51.0122 230.813 51.1372 229.656 53.419C225.969 60.6396 218.5 66.6411 210.469 68.8916C208 69.548 207.625 69.5793 189.375 69.5793L170.781 69.5793L168.281 68.7353C164.75 67.5163 162.094 65.8596 159.781 63.359C154.969 58.1702 153.781 52.325 155.469 42.5726C155.906 40.1032 156.219 38.0089 156.156 37.9777C156.094 37.9152 155.5 38.6341 154.844 39.5718C152.25 43.354 147.875 46.6673 142.5 48.9179C138.594 50.5746 135.344 51.2935 131.844 51.2935H129.312L140.906 60.2645C147.25 65.2345 152.469 69.3605 152.5 69.4855C152.5 69.6418 147.125 69.7356 140.562 69.7356H128.594L116.75 60.5145L104.938 51.2935H100.75C98.4375 51.2935 96.5625 51.4185 96.5625 51.5436C96.5625 51.6998 95.875 55.7321 95 60.5458C94.8202 61.565 94.646 62.5502 94.4833 63.4708C93.8825 66.8695 93.4375 69.3871 93.4375 69.4855C93.4375 69.6418 89.4375 69.7356 84.5312 69.7356H75.625L75.8125 68.8604C76.375 65.8596 85.875 11.7524 85.8437 11.7211C85.8125 11.6899 76.1562 24.0367 64.375 39.1655C52.5938 54.3255 42.375 67.235 41.625 67.8601C38.0312 71.0484 32.7188 71.5798 29.8438 69.0792C29.25 68.5478 28.5 67.6726 28.1562 67.1412C27.4688 65.9847 0 1.78114 0 1.28102C0 1.06222 3.25 0.999702 10.0625 1.03096L20.1562 1.12473L28.9062 22.7864C33.7187 34.6956 37.8125 44.6356 37.9688 44.8856C38.2188 45.2295 42.1562 40.2282 55.125 23.1615L71.9687 0.968445H107.656C142.312 0.968445 143.406 0.999702 145.781 1.5936C148.938 2.4063 150.969 3.34403 153.281 5.12572C157.031 7.97018 159.188 11.6586 160.469 17.3475L160.656 18.2853L161.5 16.7224C165.406 9.62685 172.094 4.25051 180 1.84366C182.303 1.15868 182.685 1.156 200.26 1.03242L200.469 1.03096C216.469 0.937187 218.875 0.999695 220.938 1.46857C228.875 3.219 234.281 8.75163 235.906 16.7536L236.438 19.4105L237.375 17.4726C240.5 10.8459 247.375 4.87566 254.75 2.34378C258.688 0.999702 260.406 0.90593 279.062 1.03096L296.719 1.12473L299.219 1.99995C302.656 3.219 304.875 4.65686 307.281 7.22C310.75 10.8772 312.469 15.4408 312.5 20.8484C312.5 22.4425 312 26.256 311.094 31.4135C310.312 35.8521 309.719 39.5406 309.75 39.6031C309.812 39.6343 312.938 32.5701 316.688 23.8491C320.469 15.1282 324.031 7.03246 324.625 5.87592ZM142.214 21.9101C141.745 20.2847 140.183 18.5343 138.589 17.8153C137.433 17.2839 136.089 17.2214 120.058 17.2214C106.527 17.2214 102.745 17.3152 102.652 17.5965C102.464 18.1279 99.6829 34.1632 99.6829 34.6633C99.6829 34.9446 103.589 35.0384 117.12 35.0384H134.527L136.402 34.1632C138.495 33.1629 140.402 31.2562 141.277 29.2557C142.214 27.1614 142.683 23.4417 142.214 21.9101ZM215.12 17.5967C215.901 17.8467 216.964 18.5657 217.839 19.4409C218.995 20.5662 219.37 21.2226 219.682 22.5667C220.026 24.1296 219.932 25.0048 218.151 35.0385C216.714 43.0718 216.026 46.2288 215.464 47.4166C214.557 49.2296 212.589 51.1988 210.557 52.2929L209.214 53.0118L193.12 53.1056C182.026 53.1681 176.651 53.1056 175.839 52.8555C173.214 52.1053 171.245 49.3546 171.245 46.5414C171.245 44.4471 174.526 25.6612 175.214 23.8482C176.182 21.2851 179.151 18.5344 181.964 17.6592C183.807 17.0965 213.214 17.034 215.12 17.5967ZM296.032 24.0981C296.063 21.2537 294.626 19.1282 291.876 17.8778C290.532 17.2527 289.907 17.2214 275.001 17.2527C258.657 17.2527 258.188 17.3152 255.845 18.7531C254.313 19.6908 252.251 22.0351 251.563 23.5668C251.22 24.317 250.126 29.7871 249.063 35.7261C247.376 45.3222 247.188 46.7288 247.501 47.9166C248.032 49.9796 249.251 51.48 251.032 52.3865L252.626 53.1679H268.501C283.72 53.1679 284.407 53.1367 286.063 52.5428C288.282 51.6988 290.657 49.4482 291.688 47.2289C292.595 45.2909 296.001 27.0676 296.032 24.0981Z" fill="#111111"/>
<path fill-rule="evenodd" clip-rule="evenodd" d="M431.629 69.5282L431.5 69.7373H424.812C421 69.7373 418.125 69.6123 418.125 69.456C418.125 69.4518 418.126 69.4465 418.128 69.4401L422.755 41.6044C422.753 41.605 422.751 41.6053 422.75 41.6053C422.615 41.6053 423.725 35.1581 424.855 28.9655L425.209 26.841L425.248 26.8313C426.067 22.4107 426.821 18.5424 427.031 17.8493C428.438 13.3794 431.688 8.69077 435.594 5.56498C438.219 3.4707 442.656 1.22015 445.5 0.532471C448.281 -0.155197 485 -0.186462 487.594 0.501213C493.062 1.93907 497.344 5.8463 499.25 11.1914C499.844 12.9418 500 13.9421 500 16.9116C500 20.0686 499.656 22.413 497.344 35.6038C495.594 45.3875 494.406 51.4515 493.875 52.7956C491 60.4537 483.844 66.9554 476.094 68.8933C474.385 69.3316 472.2 69.6316 470.745 69.6749L470.728 69.7373L431.629 69.5282Z" fill="white"/>
<path d="M445.5 0.532473C442.656 1.22015 438.219 3.47071 435.594 5.56498C431.688 8.69076 428.438 13.3794 427.031 17.8493C426.5 19.5997 422.5 41.6053 422.75 41.6053C422.813 41.6053 424.562 40.5737 426.656 39.2922C441.938 30.0711 458.5 23.9446 474.25 21.7565C476.094 21.4752 477.625 21.3189 477.688 21.3814C477.719 21.4127 476.063 22.2254 474 23.1631C455.031 31.6653 435.594 47.2629 420.813 65.7676C419.344 67.643 418.125 69.2997 418.125 69.456C418.125 69.6123 421 69.7373 424.812 69.7373H431.5L433 67.2992C435.344 63.517 439.563 57.3279 441.844 54.421C449.438 44.6373 459.656 34.8223 469 28.2582C473.375 25.1949 478.406 22.1004 478.625 22.3192C478.719 22.413 478.375 23.3194 477.844 24.3197C475.344 29.3209 472.812 36.3852 471.25 42.9806C469.719 49.3572 469.031 54.8273 468.844 62.423L468.656 69.3622L469.375 69.581C470.25 69.8623 473.656 69.5185 476.094 68.8933C483.844 66.9554 491 60.4537 493.875 52.7956C494.406 51.4515 495.594 45.3875 497.344 35.6038C499.656 22.413 500 20.0686 500 16.9116C500 13.9421 499.844 12.9418 499.25 11.1914C497.344 5.8463 493.063 1.93907 487.594 0.501213C485 -0.186459 448.281 -0.155199 445.5 0.532473Z" fill="#ED1C24"/>
</svg>
