<svg width="172" height="30" viewBox="0 0 172 30" fill="none" xmlns="http://www.w3.org/2000/svg">
<path fill-rule="evenodd" clip-rule="evenodd" d="M138.552 2.47749C139.083 1.44159 140.039 0.511936 140.876 0.219759C141.686 -0.0724163 143.292 -0.0591373 143.956 0.246321C144.673 0.56506 145.39 1.40175 145.709 2.265C145.855 2.66342 147.103 6.51484 148.484 10.8311L150.98 18.68L156.742 10.4327C159.902 5.90392 162.717 1.9197 162.983 1.61424C163.248 1.2955 163.819 0.817394 164.244 0.551779C164.934 0.126795 165.134 0.0736713 166.129 0.0205479C167.085 -0.0325737 167.324 0.00726891 167.842 0.259604C168.559 0.591621 169.037 1.30878 169.25 2.31812C169.369 2.87591 171.374 28.4015 171.374 29.3046V29.6101H167.656H163.939V29.2382C163.925 28.4281 162.783 14.3372 162.717 14.2708C162.677 14.231 160.473 17.2324 157.818 20.9377C155.162 24.6564 152.666 28.0297 152.268 28.4547C151.245 29.5437 150.356 29.9421 149.001 29.9421C148.085 29.9421 147.86 29.889 147.328 29.5835C146.957 29.3577 146.545 28.9726 146.306 28.5875C146.027 28.1492 145.164 25.679 143.624 20.9112C142.363 17.0332 141.301 13.8325 141.247 13.7661C141.194 13.713 139.601 17.259 137.702 21.6416L134.263 29.6101L130.519 29.6101H126.762L126.881 29.3046C126.948 29.1453 127.133 28.707 127.293 28.3484C127.347 28.2217 127.423 28.0501 127.509 27.856C127.675 27.4805 127.879 27.0204 128.036 26.6352L128.488 25.586L127.625 26.4094C126.031 27.8969 123.708 29.0257 121.464 29.4109C119.685 29.7296 105.943 29.6366 104.88 29.3179C102.517 28.6007 100.579 27.0336 99.6359 25.0946C99.1048 24.0189 98.7463 22.7838 98.7463 22.0666C98.7463 21.6549 98.6932 21.708 98.2019 22.6775C96.6352 25.7454 93.4619 28.2953 90.0496 29.2515C89.0007 29.5304 88.8413 29.5437 81.0873 29.5437L73.1872 29.5437L72.125 29.1851C70.6247 28.6671 69.4961 27.9633 68.5136 26.9008C66.4688 24.6962 65.9643 22.2127 66.6813 18.0691C66.8672 17.0199 66.9999 16.1301 66.9734 16.1168C66.9468 16.0903 66.6945 16.3957 66.4157 16.7941C65.3137 18.4011 63.4548 19.8089 61.1711 20.7651C59.5114 21.469 58.1306 21.7744 56.6435 21.7744H55.568L60.494 25.586C63.1893 27.6976 65.4066 29.4507 65.4199 29.5038C65.4199 29.5702 63.1362 29.6101 60.3479 29.6101H55.2627L50.2305 25.6923L45.2116 21.7744H43.4325C42.4499 21.7744 41.6533 21.8276 41.6533 21.8807C41.6533 21.9471 41.3612 23.6603 40.9894 25.7055L40.7698 26.9486L40.7696 26.9501L40.7695 26.9501C40.5145 28.3933 40.3255 29.462 40.3255 29.5038C40.3255 29.5702 38.626 29.6101 36.5415 29.6101H32.7574L32.8371 29.2382C33.0761 27.9633 37.1124 4.97427 37.0991 4.96099C37.0858 4.94771 32.9831 10.1936 27.9775 16.6215C22.9719 23.0627 18.6302 28.5476 18.3115 28.8132C16.7846 30.1679 14.5275 30.3936 13.3059 29.3312C13.0537 29.1054 12.735 28.7335 12.589 28.5078C12.2969 28.0164 0.625977 0.737709 0.625977 0.525217C0.625977 0.432253 2.00683 0.405691 4.90131 0.418972L9.18993 0.458815L12.9076 9.66238C14.9523 14.7223 16.6917 18.9456 16.7581 19.0519C16.8643 19.198 18.5373 17.073 24.0474 9.82175L31.2039 0.39241L46.3668 0.39241C61.0915 0.39241 61.5562 0.405691 62.5653 0.658026C63.9063 1.00332 64.7693 1.40175 65.7518 2.15875C67.3451 3.3673 68.2613 4.93443 68.8057 7.35153L68.8853 7.74995L69.2438 7.08591C70.9035 4.07118 73.7449 1.78689 77.1041 0.764269C78.0827 0.473236 78.2447 0.472097 85.7125 0.419594L85.8008 0.418972C92.5988 0.379129 93.6212 0.405689 94.4975 0.6049C97.87 1.34862 100.167 3.69932 100.857 7.09919L101.083 8.22806L101.481 7.40465C102.809 4.58913 105.73 2.0525 108.864 0.976763C110.537 0.405689 111.267 0.365849 119.194 0.418972L126.695 0.458815L127.758 0.830673C129.218 1.34862 130.161 1.95954 131.183 3.04856C132.657 4.60241 133.387 6.5414 133.4 8.83897C133.4 9.51629 133.188 11.1365 132.803 13.3279C132.471 15.2137 132.219 16.7809 132.232 16.8074C132.259 16.8207 133.586 13.8193 135.18 10.1139C136.786 6.40859 138.3 2.96888 138.552 2.47749ZM61.0496 9.29009C60.8505 8.59949 60.1866 7.85576 59.5095 7.55031C59.0182 7.32453 58.4473 7.29797 51.6359 7.29797C45.8868 7.29797 44.2802 7.33781 44.2404 7.45734C44.1607 7.68312 42.9791 14.4962 42.9791 14.7086C42.9791 14.8282 44.6387 14.868 50.3879 14.868L57.7834 14.868L58.58 14.4962C59.4696 14.0712 60.2796 13.261 60.6513 12.4111C61.0496 11.5213 61.2488 9.94085 61.0496 9.29009ZM92.0258 7.45737C92.3577 7.56361 92.8092 7.86907 93.1809 8.24093C93.6722 8.71904 93.8315 8.99793 93.9643 9.56901C94.1104 10.233 94.0705 10.6049 93.3137 14.868C92.7029 18.2812 92.4108 19.6225 92.1719 20.1272C91.7868 20.8975 90.9503 21.7342 90.0873 22.199L89.5164 22.5045L82.6785 22.5443C77.965 22.5709 75.6813 22.5443 75.336 22.4381C74.2207 22.1193 73.3843 20.9506 73.3843 19.7554C73.3843 18.8655 74.7784 10.8838 75.0705 10.1135C75.4821 9.02449 76.7434 7.85579 77.9384 7.48392C78.7218 7.24487 91.2159 7.21831 92.0258 7.45737ZM126.404 10.2197C126.417 9.01119 125.806 8.1081 124.638 7.57687C124.067 7.31126 123.801 7.29798 117.468 7.31126C110.524 7.31126 110.325 7.33782 109.329 7.94873C108.678 8.34716 107.802 9.34321 107.51 9.99397C107.364 10.3127 106.899 12.6368 106.448 15.1602C105.731 19.2374 105.651 19.835 105.784 20.3397C106.009 21.2162 106.527 21.8537 107.284 22.2388L107.961 22.5709H114.706C121.172 22.5709 121.464 22.5576 122.168 22.3052C123.111 21.9467 124.12 20.9904 124.558 20.0475C124.943 19.2241 126.39 11.4814 126.404 10.2197Z" fill="#111111"/>
</svg>
