<?xml version="1.0" standalone="no"?>
<!DOCTYPE svg PUBLIC "-//W3C//DTD SVG 20010904//EN"
 "http://www.w3.org/TR/2001/REC-SVG-20010904/DTD/svg10.dtd">
<svg version="1.0" xmlns="http://www.w3.org/2000/svg"
 width="256.000000pt" height="256.000000pt" viewBox="0 0 256.000000 256.000000"
 preserveAspectRatio="xMidYMid meet">
<metadata>
Created by potrace 1.14, written by Peter Selinger 2001-2017
</metadata>
<g transform="translate(0.000000,256.000000) scale(0.100000,-0.100000)"
fill="#000000" stroke="none">
<path d="M988 2365 c-2 -1 -34 -5 -73 -7 -169 -12 -401 -155 -519 -322 -83
-116 -117 -203 -150 -381 -59 -316 -103 -574 -99 -579 2 -2 68 34 146 81 170
101 419 224 594 294 127 51 365 133 413 143 14 3 59 14 100 25 115 32 276 62
400 75 53 6 50 4 -125 -83 -99 -49 -202 -103 -230 -119 -146 -84 -319 -197
-425 -277 -56 -41 -195 -149 -200 -155 -3 -3 -34 -30 -70 -60 -181 -153 -428
-400 -565 -565 -28 -33 -53 -62 -56 -65 -20 -17 -127 -165 -123 -171 2 -4 96
-8 208 -9 l203 -1 34 53 c99 158 313 467 338 488 3 3 31 34 61 70 249 295 549
563 856 763 144 94 174 111 180 104 3 -3 -10 -38 -30 -78 -75 -160 -147 -367
-192 -553 -28 -117 -28 -118 -39 -186 -4 -25 -9 -52 -10 -60 -15 -86 -24 -208
-30 -408 -6 -209 -12 -199 102 -187 271 28 507 189 643 441 42 76 81 237 125
504 4 19 10 54 16 78 5 23 12 59 15 80 2 20 7 51 9 67 3 17 9 53 15 80 11 58
17 91 26 154 4 25 8 55 11 66 2 11 6 72 10 136 7 137 -4 194 -53 289 -65 125
-201 234 -333 267 -25 6 -1176 14 -1183 8z"/>
</g>
</svg>
